<svg xmlns="http://www.w3.org/2000/svg" viewBox="0 0 30 20" role="img" aria-labelledby="title desc">
  <title>Chine</title>
  <desc>Drapeau chinois</desc>
  <rect width="30" height="20" fill="#DE2910"/>
  <polygon fill="#FFDE00" points="5,2.2 5.9,4.8 8.6,4.8 6.4,6.4 7.2,9 5,7.4 2.8,9 3.6,6.4 1.4,4.8 4.1,4.8"/>
  <polygon fill="#FFDE00" points="10.2,2.6 10.6,3.8 11.9,3.8 10.8,4.5 11.2,5.7 10.2,5 9.2,5.7 9.6,4.5 8.5,3.8 9.8,3.8"/>
  <polygon fill="#FFDE00" points="12.4,5.1 12.8,6.2 14,6.2 13,7 13.4,8.1 12.4,7.4 11.4,8.1 11.8,7 10.8,6.2 12,6.2"/>
  <polygon fill="#FFDE00" points="12,8.5 12.4,9.6 13.6,9.6 12.6,10.4 13,11.5 12,10.8 11,11.5 11.4,10.4 10.4,9.6 11.6,9.6"/>
  <polygon fill="#FFDE00" points="9.8,10.8 10.2,11.9 11.4,11.9 10.4,12.7 10.8,13.8 9.8,13.1 8.8,13.8 9.2,12.7 8.2,11.9 9.4,11.9"/>
</svg>
